# xmcd
#
# Track frame offsets:
# 150
# 42270
# 62437
# 75705
# 97147
# 115375
# 130695
# 143757
# 162535
# 181590
# 194365
# 210145
# 229170
# 250435
#
# Disc length: 3631 seconds
#
# Revision: 1
# Processed by: cddbd v1.4PL0 Copyright (c) Steve Scherf et al.
# Submitted via: Easy CD Ripper 1.45
#
DISCID=bc0e2d0e
DTITLE=Various Artist - Chicago Blues Nights Vol. 1
DYEAR=1994
DGENRE=Blues
TTITLE0=Welfare  Line
TTITLE1=Jimmy Dawkins - You Don't Love Me
TTITLE2=Eddie Taylor - Down In Virginia
TTITLE3=Eddie Taylor - Lucky You
TTITLE4=Hip Lankchan - Millionaire's Blues
TTITLE5=Hip Lankchan - Hip's Jam
TTITLE6=
TTITLE7=Sweet Home Chicago
TTITLE8=John Littlejohn - So Glad You're Mine
TTITLE9=John Littlejohn - All I Want
TTITLE10=Jimmy Johnson - Little By Little
TTITLE11=Jimmy Johnson - Lucille
TTITLE12=Alabama Junior Pettis - I Want Some
TTITLE13=Hip Lankchan - Hide Away
EXTD=
EXTT0=
EXTT1=
EXTT2=
EXTT3=
EXTT4=
EXTT5=
EXTT6=
EXTT7=
EXTT8=
EXTT9=
EXTT10=
EXTT11=
EXTT12=
EXTT13=
PLAYORDER=
